<?xml version="1.0" encoding="UTF-8"?>
<!DOCTYPE svg PUBLIC "-//W3C//DTD SVG 1.1//EN" "http://www.w3.org/Graphics/SVG/1.1/DTD/svg11.dtd">
<!-- Creator: CorelDRAW 2020 (64-Bit) -->
<svg xmlns="http://www.w3.org/2000/svg" xml:space="preserve" width="563px" height="233px" version="1.1" style="shape-rendering:geometricPrecision; text-rendering:geometricPrecision; image-rendering:optimizeQuality; fill-rule:evenodd; clip-rule:evenodd"
viewBox="0 0 563 233"
 xmlns:xlink="http://www.w3.org/1999/xlink"
 xmlns:xodm="http://www.corel.com/coreldraw/odm/2003">
 <defs>
  <style type="text/css">
   <![CDATA[
    .fil0 {fill:#00B288;fill-rule:nonzero}
    .fil1 {fill:#403F41;fill-rule:nonzero}
    .fil2 {fill:#FC3031;fill-rule:nonzero}
    .fil4 {fill:white;fill-rule:nonzero}
    .fil3 {fill:#231F20;fill-rule:nonzero;fill-opacity:0.200000}
   ]]>
  </style>
 </defs>
 <g id="Слой_x0020_1">
  <metadata id="CorelCorpID_0Corel-Layer"/>
  <g id="_1940123721648">
   <g>
    <path class="fil0" d="M249.81 64.02l0 -20.39 19.5 0c3.92,0 6.97,0.88 9.16,2.64 2.19,1.76 3.29,4.27 3.29,7.55 0,3.27 -1.1,5.85 -3.29,7.6 -2.19,1.72 -5.25,2.6 -9.16,2.6l-19.5 0zm30.09 8.27c2.88,-1.07 5.24,-2.53 7.1,-4.35 1.86,-1.81 3.25,-3.95 4.16,-6.37 0.92,-2.42 1.38,-5 1.38,-7.74 0,-2.74 -0.46,-5.33 -1.38,-7.74 -0.92,-2.42 -2.3,-4.53 -4.16,-6.37 -1.86,-1.82 -4.22,-3.29 -7.1,-4.35 -2.88,-1.08 -6.28,-1.61 -10.19,-1.61l-19.9 0 0 -14.98 38.21 0 0 -9.9 -48.99 0 0 65.07 30.67 0c3.92,-0.03 7.32,-0.57 10.2,-1.64l0 -0.02z"/>
    <path class="fil0" d="M307.72 46.37c0.46,-3.07 1.89,-5.54 4.31,-7.41 2.43,-1.86 5.29,-2.79 8.64,-2.79 3.34,0 6.08,0.93 8.23,2.79 2.16,1.86 3.5,4.33 4.02,7.41l-25.2 0zm29.65 -12.64c-2.07,-2.16 -4.5,-3.84 -7.35,-5.05 -2.84,-1.21 -5.97,-1.81 -9.37,-1.81 -3.4,0 -6.74,0.62 -9.65,1.86 -2.9,1.24 -5.42,2.93 -7.54,5.1 -2.14,2.16 -3.78,4.7 -4.96,7.64 -1.18,2.93 -1.76,6.11 -1.76,9.5 0,3.38 0.62,6.76 1.86,9.69 1.23,2.93 2.93,5.48 5.09,7.64 2.16,2.16 4.72,3.84 7.7,5.05 2.97,1.22 6.22,1.81 9.74,1.81 5.04,0 9.53,-1.31 13.52,-3.93 3.98,-2.61 6.83,-6.18 8.54,-10.68l-11.27 0c-1.12,1.69 -2.62,2.95 -4.51,3.77 -1.88,0.83 -3.98,1.23 -6.28,1.23 -3.47,0 -6.45,-1.01 -8.96,-2.99 -2.52,-2 -4.06,-4.63 -4.65,-7.89l36.15 0c0.13,-0.73 0.2,-1.4 0.2,-2.06l0 -2.07c0,-3.33 -0.57,-6.43 -1.71,-9.31 -1.14,-2.85 -2.74,-5.35 -4.81,-7.51l0.02 0.01z"/>
    <path class="fil0" d="M363.57 73.37c2.93,1.21 6.14,1.8 9.59,1.8 2.55,0 4.97,-0.36 7.26,-1.07 2.29,-0.73 4.39,-1.75 6.32,-3.09 1.91,-1.33 3.61,-2.97 5.05,-4.9 1.43,-1.91 2.58,-4.06 3.43,-6.41l-10.88 0c-1.17,1.88 -2.74,3.36 -4.7,4.35 -1.96,1.02 -4.12,1.51 -6.48,1.51 -2.03,0 -3.88,-0.37 -5.57,-1.13 -1.7,-0.75 -3.16,-1.77 -4.35,-3.08 -1.21,-1.31 -2.16,-2.84 -2.84,-4.61 -0.69,-1.77 -1.03,-3.69 -1.03,-5.77 0,-2.08 0.34,-4.02 1.03,-5.77 0.69,-1.76 1.63,-3.31 2.84,-4.61 1.21,-1.31 2.65,-2.33 4.35,-3.03 1.69,-0.73 3.56,-1.08 5.57,-1.08 2.36,0 4.51,0.5 6.48,1.52 1.95,1.02 3.53,2.46 4.7,4.35l10.88 0c-0.85,-2.36 -2,-4.49 -3.43,-6.42 -1.43,-1.91 -3.11,-3.56 -5.05,-4.9 -1.91,-1.33 -4.03,-2.37 -6.32,-3.08 -2.29,-0.73 -4.71,-1.08 -7.26,-1.08 -3.47,0 -6.66,0.6 -9.59,1.81 -2.93,1.21 -5.48,2.89 -7.64,5.05 -2.17,2.16 -3.86,4.71 -5.1,7.64 -1.24,2.93 -1.86,6.14 -1.86,9.6 0,3.45 0.62,6.68 1.86,9.65 1.24,2.97 2.93,5.53 5.1,7.7 2.16,2.13 4.71,3.81 7.64,5.02l0 0.03z"/>
    <polygon class="fil0" points="414.81,73.91 425.21,73.91 425.21,37.25 442.64,37.25 442.64,28.14 397.48,28.14 397.48,37.25 414.81,37.25 "/>
    <path class="fil0" d="M302.33 127.95c0,1.81 -0.04,3.74 -0.15,5.72 -0.1,2 -0.39,3.83 -0.89,5.48 -0.48,1.67 -1.28,3.05 -2.35,4.16 -1.07,1.12 -2.56,1.67 -4.45,1.67l-2.64 0 0 9.5 -33.11 -32.34 33.3 -32.54 -14.01 0 -28.23 27.25 0 -27.25 -10.78 0 0 65.07 10.78 0 0 -26.96 27.83 26.96 18.03 0c3.86,0 6.9,-0.84 9.16,-2.51 2.26,-1.66 3.96,-3.8 5.15,-6.41 1.17,-2.62 1.91,-5.48 2.26,-8.63 0.31,-3.13 0.48,-6.14 0.48,-9.02l0 -10.09 17.14 -0.01 0 36.66 10.38 0 0 -45.77 -37.92 0 0 19.01 0.02 0.05z"/>
    <polygon class="fil0" points="361.21,140.01 361.21,108.93 350.83,108.93 350.83,154.7 361.21,154.7 385.63,123.64 385.63,154.7 396.01,154.7 396.01,108.93 385.63,108.93 "/>
    <polygon class="fil0" points="440.88,127.06 416.48,127.06 416.48,108.93 406.1,108.93 406.1,154.7 416.48,154.7 416.48,136.18 440.88,136.18 440.88,154.7 451.27,154.7 451.27,108.93 440.88,108.93 "/>
    <polygon class="fil0" points="471.75,140.01 471.75,108.93 461.35,108.93 461.35,154.7 471.75,154.7 496.14,123.64 496.14,154.7 506.54,154.7 506.54,108.93 496.14,108.93 "/>
    <polygon class="fil0" points="561.5,108.93 547.29,108.93 527.01,127.74 527.01,108.93 516.63,108.93 516.63,154.7 527.01,154.7 527.01,136.95 547.29,154.7 561.5,154.7 536.51,131.87 "/>
   </g>
   <g>
    <path class="fil1" d="M252.13 170.64c2.41,0 4.49,0.59 6.25,1.79 1.76,1.2 3.11,2.84 4.03,4.93l-4.77 0c-1.4,-1.82 -3.23,-2.73 -5.53,-2.73 -2.06,0 -3.78,0.75 -5.16,2.22 -1.38,1.47 -2.06,3.33 -2.06,5.56 0,2.23 0.68,4.08 2.06,5.57 1.38,1.47 3.1,2.21 5.16,2.21 2.32,0 4.16,-0.91 5.53,-2.72l4.77 0c-0.93,2.09 -2.27,3.73 -4.03,4.92 -1.76,1.2 -3.84,1.79 -6.25,1.79 -3.35,0 -6.13,-1.11 -8.36,-3.36 -2.23,-2.24 -3.35,-5.03 -3.35,-8.39 0,-3.36 1.12,-6.17 3.35,-8.4 2.23,-2.25 5.01,-3.36 8.36,-3.36l0 -0.03z"/>
    <path class="fil1" d="M276.94 188.8l4.64 0c-0.64,1.64 -1.68,2.93 -3.14,3.9 -1.46,0.96 -3.07,1.44 -4.85,1.44 -2.52,0 -4.61,-0.81 -6.26,-2.43 -1.65,-1.63 -2.49,-3.67 -2.49,-6.12 0,-2.45 0.81,-4.46 2.42,-6.08 1.61,-1.63 3.68,-2.44 6.17,-2.44 2.49,0 4.5,0.81 6.07,2.42 1.57,1.61 2.35,3.63 2.35,6.03 0,0.75 -0.02,1.26 -0.07,1.51l-12.47 -0.01c0.22,0.98 0.73,1.75 1.52,2.32 0.78,0.56 1.7,0.85 2.78,0.85 1.47,0 2.58,-0.47 3.34,-1.39l-0.01 0zm-7.53 -4.97l7.87 0c-0.13,-0.94 -0.55,-1.68 -1.26,-2.23 -0.71,-0.55 -1.57,-0.84 -2.59,-0.84 -1.02,0 -1.89,0.29 -2.66,0.85 -0.77,0.57 -1.23,1.31 -1.36,2.22l0 0z"/>
    <polygon class="fil1" points="300.08,177.52 300.08,181.27 294.01,181.27 294.01,193.72 289.72,193.72 289.72,181.27 283.69,181.27 283.69,177.52 "/>
    <path class="fil1" d="M303.14 177.52l4.29 0 0 4.67 4.67 0c2.11,0 3.72,0.55 4.82,1.64 1.1,1.09 1.65,2.46 1.65,4.13 0,1.67 -0.55,3.03 -1.65,4.13 -1.1,1.09 -2.71,1.64 -4.82,1.64l-8.96 0 0 -16.19 0 -0.02zm4.29 8.42l0 4.02 4.53 0c1.55,0 2.32,-0.68 2.32,-2.01 0,-0.64 -0.21,-1.13 -0.62,-1.49 -0.41,-0.36 -0.98,-0.52 -1.71,-0.52l-4.53 0 0.01 0z"/>
    <polygon class="fil1" points="345.48,184.75 341.55,193.72 337.26,193.72 333.4,184.75 333.4,193.72 329.11,193.72 329.11,177.52 334.19,177.52 339.43,189.56 344.75,177.52 349.76,177.52 349.76,193.72 345.46,193.72 345.46,184.75 "/>
    <path class="fil1" d="M365.85 188.8l4.64 0c-0.63,1.64 -1.68,2.93 -3.14,3.9 -1.46,0.96 -3.07,1.44 -4.84,1.44 -2.52,0 -4.61,-0.81 -6.27,-2.43 -1.65,-1.63 -2.49,-3.67 -2.49,-6.12 0,-2.45 0.81,-4.46 2.42,-6.08 1.62,-1.63 3.68,-2.44 6.17,-2.44 2.5,0 4.51,0.81 6.07,2.42 1.57,1.61 2.36,3.63 2.36,6.03 0,0.75 -0.03,1.26 -0.07,1.51l-12.47 -0.01c0.22,0.98 0.73,1.75 1.51,2.32 0.79,0.56 1.71,0.85 2.78,0.85 1.47,0 2.59,-0.47 3.35,-1.39l-0.02 0zm-7.53 -4.97l7.88 0c-0.14,-0.94 -0.55,-1.68 -1.27,-2.23 -0.7,-0.55 -1.57,-0.84 -2.59,-0.84 -1.02,0 -1.88,0.29 -2.65,0.85 -0.78,0.57 -1.23,1.31 -1.37,2.22z"/>
    <path class="fil1" d="M393.71 198.01l-4.06 0 0 -4.29 -12.27 0 0 4.29 -4.06 0 0 -8.04 2.17 0c1.01,-1.15 1.5,-3.06 1.5,-5.69l0 -6.74 13.98 0 0 12.44 2.72 0 0 8.05 0.02 -0.02zm-12.41 -16.74l0 2.96c0,2.44 -0.3,4.34 -0.92,5.73l6.3 0 0 -8.69 -5.38 0z"/>
    <polygon class="fil1" points="409.48,177.52 413.78,177.52 413.78,193.72 409.48,193.72 409.48,183.46 401.68,193.72 397.38,193.72 397.38,177.52 401.68,177.52 401.68,187.78 409.49,177.52 "/>
    <polygon class="fil1" points="418.68,193.72 418.68,177.52 422.98,177.52 422.98,189.97 430.37,189.97 430.37,177.52 434.67,177.52 434.67,189.97 437.39,189.97 437.39,198.01 433.33,198.01 433.33,193.72 "/>
    <polygon class="fil1" points="453.19,177.52 457.48,177.52 457.48,193.72 453.19,193.72 453.19,183.46 445.38,193.72 441.08,193.72 441.08,177.52 445.38,177.52 445.38,187.78 453.19,177.52 "/>
    <polygon class="fil1" points="474.48,177.52 478.78,177.52 478.78,193.72 474.48,193.72 474.48,187.41 466.68,187.41 466.68,193.72 462.38,193.72 462.38,177.52 466.68,177.52 466.68,183.67 474.48,183.67 "/>
    <path class="fil1" d="M491.39 190.21c1.65,0 2.87,-0.61 3.61,-1.81l4.36 0c-0.59,1.78 -1.61,3.18 -3.05,4.21 -1.45,1.04 -3.09,1.56 -4.93,1.56 -2.45,0 -4.5,-0.81 -6.16,-2.44 -1.65,-1.62 -2.47,-3.66 -2.47,-6.11 0,-2.45 0.82,-4.49 2.47,-6.1 1.66,-1.61 3.71,-2.42 6.16,-2.42 1.84,0 3.48,0.52 4.93,1.55 1.44,1.04 2.46,2.44 3.05,4.22l-4.36 0c-0.74,-1.2 -1.96,-1.81 -3.61,-1.81 -1.29,0 -2.34,0.43 -3.14,1.27 -0.8,0.84 -1.2,1.94 -1.2,3.3 0,1.37 0.4,2.47 1.2,3.32 0.8,0.86 1.85,1.28 3.14,1.28l0 -0.02z"/>
    <polygon class="fil1" points="503.22,177.52 507.52,177.52 507.52,183.8 514.12,177.52 520.09,177.52 511.36,185.63 520.04,193.72 514.11,193.72 507.5,187.82 507.5,193.72 503.21,193.72 503.21,177.52 "/>
    <polygon class="fil1" points="534.98,177.52 539.28,177.52 539.28,193.72 534.98,193.72 534.98,183.46 527.18,193.72 522.88,193.72 522.88,177.52 527.18,177.52 527.18,187.78 "/>
    <polygon class="fil1" points="548.04,177.52 551.68,182.12 555.4,177.52 560.72,177.52 554.31,185.43 560.89,193.72 555.37,193.72 551.52,188.87 547.59,193.72 542.35,193.72 548.89,185.61 542.51,177.52 "/>
    <polygon class="fil1" points="241.49,226.51 241.49,210.32 245.78,210.32 245.78,222.77 253.17,222.77 253.17,210.32 257.47,210.32 257.47,222.77 260.2,222.77 260.2,230.81 256.13,230.81 256.13,226.51 "/>
    <path class="fil1" d="M275.07 221.6l4.64 0c-0.64,1.63 -1.68,2.93 -3.14,3.89 -1.46,0.97 -3.07,1.45 -4.85,1.45 -2.52,0 -4.61,-0.81 -6.26,-2.44 -1.66,-1.62 -2.5,-3.66 -2.5,-6.11 0,-2.45 0.82,-4.46 2.43,-6.09 1.61,-1.62 3.67,-2.43 6.17,-2.43 2.49,0 4.5,0.81 6.07,2.42 1.57,1.61 2.35,3.62 2.35,6.03 0,0.74 -0.03,1.25 -0.07,1.5l-12.47 0c0.22,0.98 0.73,1.75 1.51,2.31 0.79,0.57 1.71,0.86 2.78,0.86 1.48,0 2.59,-0.47 3.35,-1.39l-0.01 0zm-7.54 -4.97l7.88 0c-0.14,-0.94 -0.55,-1.68 -1.27,-2.23 -0.7,-0.55 -1.57,-0.84 -2.58,-0.84 -1.02,0 -1.89,0.29 -2.66,0.85 -0.77,0.56 -1.23,1.31 -1.37,2.22z"/>
    <polygon class="fil1" points="296.06,210.32 300.36,210.32 300.36,226.51 296.06,226.51 296.06,220.21 288.26,220.21 288.26,226.51 283.96,226.51 283.96,210.32 288.26,210.32 288.26,216.46 296.06,216.46 "/>
    <polygon class="fil1" points="319.81,210.32 319.81,214.06 313.74,214.06 313.74,226.51 309.44,226.51 309.44,214.06 303.41,214.06 303.41,210.32 "/>
    <path class="fil1" d="M340.19 218.39c0,2.34 -0.76,4.35 -2.27,6.03 -1.52,1.68 -3.51,2.52 -6.02,2.52 -2.02,0 -3.61,-0.57 -4.73,-1.71l0 8.22 -4.3 0 0 -23.14 4.3 0 0 1.22c1.11,-1.11 2.69,-1.66 4.73,-1.66 2.51,0 4.5,0.84 6.02,2.52 1.51,1.68 2.27,3.67 2.27,6l0 0zm-4.3 0c0,-1.27 -0.41,-2.36 -1.22,-3.24 -0.81,-0.88 -1.86,-1.33 -3.1,-1.33 -1.24,0 -2.33,0.4 -3.22,1.2 -0.9,0.79 -1.35,1.91 -1.35,3.37 0,1.46 0.45,2.59 1.36,3.39 0.91,0.81 1.99,1.21 3.21,1.21 1.23,0 2.29,-0.46 3.1,-1.37 0.81,-0.9 1.22,-1.98 1.22,-3.23l0 0z"/>
    <path class="fil1" d="M345.77 212.3c1.66,-1.62 3.77,-2.43 6.29,-2.43 2.52,0 4.61,0.81 6.29,2.43 1.67,1.63 2.51,3.67 2.51,6.12 0,2.45 -0.84,4.46 -2.51,6.08 -1.67,1.63 -3.77,2.44 -6.29,2.44 -2.52,0 -4.61,-0.81 -6.29,-2.44 -1.67,-1.62 -2.51,-3.65 -2.51,-6.08 0,-2.44 0.84,-4.49 2.51,-6.12zm9.51 2.83c-0.85,-0.87 -1.93,-1.3 -3.22,-1.3 -1.3,0 -2.37,0.43 -3.22,1.3 -0.86,0.86 -1.28,1.96 -1.28,3.3 0,1.34 0.42,2.44 1.28,3.29 0.85,0.85 1.92,1.28 3.22,1.28 1.29,0 2.37,-0.43 3.22,-1.28 0.85,-0.85 1.28,-1.95 1.28,-3.29 0,-1.34 -0.43,-2.44 -1.28,-3.3z"/>
    <path class="fil1" d="M380.14 215.15c0,1.34 -0.42,2.4 -1.26,3.17 0.98,0.84 1.46,1.94 1.46,3.3 0,1.37 -0.47,2.58 -1.41,3.5 -0.93,0.92 -2.3,1.38 -4.09,1.38l-10.02 0 0 -16.19 9.82 0c1.77,0 3.12,0.45 4.07,1.37 0.94,0.93 1.42,2.08 1.42,3.46l0.01 0.01zm-11.01 -1.32l0 2.93 4.87 0c1.23,0 1.85,-0.49 1.85,-1.5 0,-1 -0.62,-1.43 -1.85,-1.43l-4.87 0zm0 6.2l0 2.96 5.08 0c1.23,0 1.85,-0.5 1.85,-1.5 0,-1.01 -0.62,-1.46 -1.85,-1.46l-5.08 0z"/>
   </g>
  </g>
  <g id="_1940123722368">
   <path class="fil0" d="M158.71 122.82c-1.48,-1.82 -4.74,-5.02 -9.98,-6.02 -1,-0.19 -2.01,-0.29 -3.02,-0.29 -6.76,0 -11.49,4.27 -12,4.76 -0.45,0.42 -0.7,0.98 -0.72,1.59 -0.02,0.61 0.2,1.19 0.62,1.64 0.43,0.46 1.04,0.73 1.67,0.73 0.58,0 1.14,-0.22 1.57,-0.62 0.14,-0.13 1.2,-1.11 2.92,-2.01 -0.04,0.18 -0.07,0.37 -0.09,0.56 -0.19,1.6 0.32,3.17 1.41,4.42 1.07,1.22 2.62,1.99 4.31,2.17 0.27,0.02 0.51,0.04 0.77,0.04 0.19,0 0.38,0 0.57,-0.02 1.22,-0.11 2.39,-0.53 3.37,-1.23 1.37,-0.98 2.24,-2.41 2.44,-4.01 0.05,-0.42 0.05,-0.84 0,-1.26 1.19,0.83 2.05,1.73 2.6,2.42 0.44,0.54 1.08,0.85 1.78,0.85 0.07,0 0.14,0 0.21,0 0.46,-0.05 0.89,-0.22 1.24,-0.5 0.98,-0.79 1.13,-2.24 0.34,-3.22l-0.01 0zm-13.54 2.66c-0.06,0.26 -0.16,0.44 -0.32,0.51 -0.57,0.25 -1.98,-0.69 -2.17,-1.92 -0.02,-0.09 -0.03,-0.19 -0.03,-0.29 0,-0.24 0.05,-0.48 0.14,-0.69 0.39,-1.02 1.57,-1.73 2.07,-1.51 0.21,0.09 0.32,0.37 0.36,0.79 0.04,0.35 0.05,0.8 0.05,1.33 0,0.74 0.01,1.37 -0.09,1.78l-0.01 0z"/>
   <g>
    <path class="fil0" d="M97.2 120.41c0,0 0.01,0 0.02,0 0,0 -0.02,0 -0.02,0 -0.02,0 -0.04,0.02 -0.06,0.03 0.02,-0.02 0.04,-0.02 0.06,-0.04l0 0.01z"/>
    <path class="fil0" d="M97.49 120.38c0,0 -0.08,0 -0.11,0 0.04,0 0.07,0 0.11,0z"/>
    <path class="fil0" d="M97.24 120.4c0,0 0,0 0,0 0,0 -0.02,0 -0.02,0 0,0 0.02,0 0.03,0l-0.01 0z"/>
    <path class="fil0" d="M97.67 120.41c-0.06,-0.02 -0.12,-0.02 -0.18,-0.03 0,0 0.01,0 0.02,0l0.02 0c0,0 0.03,0 0.05,0.01 0,0 0,0 0.02,0 0.02,0 0.05,0 0.07,0.01l0 0.01z"/>
    <path class="fil0" d="M97.38 120.38c0,0 -0.09,0 -0.14,0.02 0.02,0 0.03,-0.01 0.04,-0.02 0.01,0 0.02,0 0.04,0 0.01,0 0.02,0 0.04,0 0,0 0,0 0,0 0,0 0,0 0.01,0l0.01 0z"/>
   </g>
   <path class="fil0" d="M165.34 114.78c0,0.25 -0.05,0.51 -0.14,0.76 -0.28,0.78 -0.97,1.3 -1.75,1.34 -0.03,0 -0.06,0 -0.09,0 -0.27,0 -0.53,-0.06 -0.78,-0.17 -16.09,-7.25 -29.28,-1.34 -29.41,-1.28 -0.47,0.22 -1,0.24 -1.49,0.05 -0.52,-0.21 -0.94,-0.64 -1.15,-1.18 -0.42,-1.06 0.04,-2.3 1.02,-2.76 0.6,-0.28 14.83,-6.73 32.56,1.26 0.76,0.35 1.23,1.15 1.23,1.98l0 0z"/>
   <path class="fil0" d="M72.58 121.08c-1.65,-1.55 -5.19,-4.19 -10.35,-4.46 -8.15,-0.42 -13.24,5.58 -13.79,6.26 -0.37,0.46 -0.55,1.04 -0.48,1.64 0.06,0.6 0.35,1.13 0.81,1.5 0.39,0.32 0.89,0.5 1.41,0.5 0.68,0 1.31,-0.3 1.73,-0.83 0.15,-0.19 0.81,-0.98 1.92,-1.85 0,0.11 0,0.22 0,0.33 0.09,3.31 3.2,6 6.95,6l0.17 0c1.84,-0.04 3.56,-0.7 4.82,-1.86 1.31,-1.2 2.01,-2.78 1.97,-4.45 -0.01,-0.34 -0.05,-0.66 -0.12,-0.98 0.89,0.55 1.54,1.11 1.91,1.46 0.44,0.41 1.01,0.62 1.6,0.6 0.6,-0.02 1.15,-0.27 1.55,-0.7 0.41,-0.44 0.62,-1 0.6,-1.59 -0.02,-0.6 -0.27,-1.15 -0.71,-1.56l0.01 -0.01zm-7.38 3.79c-0.39,1.02 -1.57,1.73 -2.07,1.51 -0.21,-0.09 -0.32,-0.37 -0.36,-0.79 -0.04,-0.35 -0.05,-0.8 -0.05,-1.33 0,-0.74 -0.01,-1.37 0.09,-1.78 0.06,-0.26 0.16,-0.44 0.32,-0.51 0.57,-0.25 1.98,0.69 2.17,1.92 0.02,0.09 0.03,0.19 0.03,0.29 0,0.24 -0.05,0.48 -0.14,0.69l0.01 0z"/>
   <path class="fil0" d="M110.37 202.26c-0.08,0.52 -0.37,0.98 -0.79,1.29 -1.13,0.83 -3.53,2.24 -6.89,2.31l-0.29 0c-3.49,0 -5.99,-1.45 -7.18,-2.31 -0.42,-0.31 -0.71,-0.76 -0.79,-1.29 -0.09,-0.53 0.04,-1.06 0.36,-1.48 0.37,-0.51 0.97,-0.81 1.6,-0.81 0.42,0 0.82,0.13 1.17,0.38 0.5,0.36 2.33,1.55 4.83,1.55l0.22 0c2.26,-0.05 3.87,-0.99 4.63,-1.55 0.35,-0.25 0.75,-0.38 1.17,-0.38 0.64,0 1.23,0.3 1.6,0.82 0.31,0.43 0.44,0.95 0.36,1.48l0 -0.01z"/>
   <path class="fil0" d="M114.01 212.87c-0.21,0.53 -0.62,0.94 -1.14,1.16 -3.64,1.54 -7.18,2.32 -10.53,2.32 -3.77,0 -7.35,-0.99 -10.65,-2.94 -0.49,-0.29 -0.84,-0.75 -0.98,-1.3 -0.14,-0.55 -0.06,-1.13 0.23,-1.61 0.29,-0.49 0.75,-0.84 1.3,-0.98 0.55,-0.14 1.12,-0.06 1.61,0.23 5.12,3.02 10.8,3.14 17.36,0.36 0.53,-0.22 1.1,-0.23 1.63,-0.01 0.53,0.21 0.94,0.62 1.16,1.14 0.22,0.53 0.23,1.1 0.01,1.63l0 0z"/>
   <g>
    <path class="fil0" d="M94.44 182.5c-0.16,0.36 -0.42,0.66 -0.73,0.87 -0.32,0.21 -0.69,0.32 -1.09,0.32 -0.27,0 -0.54,-0.06 -0.8,-0.17 -1.25,-0.55 -3.26,-1.21 -5.72,-1.21 -0.35,0 -0.71,0.02 -1.08,0.05 -2.61,0.2 -4.61,1.09 -5.83,1.81 -0.31,0.18 -0.66,0.28 -1.01,0.28 -0.07,0 -0.15,0 -0.23,-0.01 -0.62,-0.07 -1.17,-0.42 -1.49,-0.97 -0.27,-0.46 -0.34,-0.99 -0.21,-1.5 0.14,-0.51 0.46,-0.95 0.92,-1.21 2.27,-1.33 4.88,-2.14 7.54,-2.35 0.49,-0.03 0.95,-0.05 1.38,-0.05 3.16,0 5.73,0.84 7.33,1.54 1,0.44 1.45,1.61 1.01,2.62l0.01 -0.02z"/>
    <path class="fil0" d="M128.33 183.55c-0.32,0.55 -0.87,0.9 -1.49,0.97 -0.07,0 -0.15,0.01 -0.22,0.01 -0.35,0 -0.69,-0.09 -1,-0.27 -1.22,-0.72 -3.22,-1.61 -5.83,-1.81 -0.37,-0.03 -0.74,-0.05 -1.08,-0.05 -2.47,0 -4.47,0.66 -5.72,1.21 -0.26,0.12 -0.53,0.17 -0.8,0.17 -0.79,0 -1.5,-0.46 -1.82,-1.19 -0.12,-0.26 -0.17,-0.53 -0.17,-0.8 0,-0.76 0.44,-1.49 1.18,-1.82 1.61,-0.7 4.18,-1.54 7.33,-1.54 0.42,0 0.87,0.02 1.38,0.05 2.67,0.21 5.28,1.01 7.54,2.35 0.46,0.27 0.78,0.7 0.92,1.21 0.13,0.51 0.06,1.05 -0.21,1.51l-0.01 0z"/>
   </g>
   <g>
    <path class="fil0" d="M97.43 120.37c0,0 -0.02,0 -0.02,0 0.02,0 0.05,0 0.08,0 -0.02,0 -0.04,0 -0.06,0zm0.08 0.01l-0.02 0c0,0 0.02,0 0.03,0 0.01,0 0.03,0 0,0l-0.01 0zm-0.19 0c0,0 0,0 0,0 0,0 0.01,0 0.02,0 0,0 0,0 -0.01,0l-0.01 0zm-0.02 0.01c0,0 -0.01,0 -0.02,0 -0.02,0 -0.03,0 -0.05,0.02 0.01,0 0.02,0 0.04,0 0,0 0,0 0.02,0 0,0 0,0 0.01,0l0 0 0 -0.02zm0.27 0l0 0c0,0 0,0 0.01,0l0 0c0,0 0,0 0,0l-0.01 0zm-0.08 -0.01c0,0 0.02,0 0.03,0 0.01,0 0.03,0 0,0l-0.02 0 -0.01 0zm-0.19 0.01l0 0c0,0 0,0 0.01,0l0 0 -0.01 0zm90.65 -68.82c-9.27,-7.58 -19.91,-11.42 -31.63,-11.42 -9.08,0 -18.72,2.34 -28.64,6.94 -12.08,5.6 -21.44,12.94 -26.45,17.32 -12.15,-8.36 -25.43,-12.77 -38.49,-12.77 -9.2,0 -18.1,2.15 -26.44,6.38 -19.65,9.97 -32.34,30.35 -32.34,51.93 0,46.14 33.54,80.13 53.54,96.27 2.53,2.03 4.97,3.92 7.27,5.61 9.13,6.73 19.27,13.17 30.15,19.13 2.48,1.37 5.27,2.09 8.08,2.09 3.83,0 7.59,-1.36 10.58,-3.82 10.53,-8.71 20.43,-17.57 29.44,-26.33 2.53,-2.46 4.98,-4.9 7.48,-7.47 22.86,-23.47 39.1,-46.02 48.26,-67.06l0.1 -0.23c0.02,-0.05 0.05,-0.12 0.08,-0.18 1.22,-2.84 2.29,-5.55 3.16,-8.07 0,0 0,0 0,-0.02l0.05 -0.14c3.37,-9.71 5.05,-18.83 5.05,-27.25 0,-16.55 -6.47,-30.44 -19.26,-40.91l0.01 0zm-177.38 58.38c0,-19.11 11.27,-37.18 28.73,-46.04 7.38,-3.75 15.26,-5.65 23.42,-5.65 11.92,0 24.11,4.13 35.3,11.96 -3.86,4.8 -5.7,10.83 -5.05,16.64 0.44,3.97 2.07,7.55 4.71,10.41 -3.22,0.57 -6.18,0.78 -9.84,0.68 -0.14,-10.83 -4.2,-20.49 -7.98,-24.95 -1.04,-1.2 -2.66,-1.59 -4.13,-0.99 -1.48,0.59 -2.37,2 -2.27,3.6l0.02 0.33c0.02,0.41 0.05,0.81 0.08,1.21 0.27,3.65 0.54,7.43 -1.22,15 -0.05,0.23 -0.26,0.4 -0.49,0.42 -8.52,0.79 -17.29,3.21 -25.45,7.02 2.26,-9.86 5.78,-19.69 10.5,-29.26 0.28,-0.58 0.33,-1.22 0.12,-1.82 -0.21,-0.6 -0.63,-1.08 -1.2,-1.36 -1.17,-0.59 -2.6,-0.11 -3.19,1.07 -19.6,39.73 -18.52,82.17 2.87,113.59 0.02,2.09 0.12,4.17 0.29,6.18 0,0.18 0.02,0.36 0.04,0.53 0.23,2.74 0.59,5.63 1.08,8.58 -40.29,-34.67 -46.34,-69.42 -46.34,-87.15zm46.73 55.71c-0.65,2.46 -1.13,5.09 -1.43,7.82 -9.19,-15.93 -13.44,-34.71 -12.3,-54.45 12.36,-6.89 16.67,-6.62 26.03,-6.04l0.15 0c0.57,0.06 1.12,-0.12 1.54,-0.48 0.43,-0.37 0.69,-0.9 0.72,-1.49 0.04,-0.57 -0.15,-1.12 -0.53,-1.55 -0.38,-0.42 -0.9,-0.68 -1.46,-0.71 -10.64,-0.66 -15.52,-0.39 -26.06,5.2 0.3,-2.83 0.69,-5.66 1.2,-8.46 8.45,-4.45 18.05,-7.37 27.1,-8.21 2.28,-0.21 4.16,-1.84 4.68,-4.07 1.51,-6.47 1.64,-10.49 1.5,-13.73 2.35,4.38 4.61,11.27 4.61,19.05 0,2.22 1.75,4.03 3.98,4.11 4.94,0.18 8.9,-0.14 13.44,-1.1 -0.28,3.23 -0.44,6.52 -0.47,9.79 0,0.05 -0.01,0.1 -0.01,0.16l0 0.62 0.01 0c0,0.26 0,0.62 0,1.1l0 1.83c0.01,0.12 0.01,0.23 0.01,0.37l0 0.12c0,0.06 0,0.12 0,0.17 -1.23,-0.35 -2.51,-0.53 -3.8,-0.57 -4.03,-0.09 -7.16,1.39 -9.07,2.65 -1.02,0.67 -1.31,2.06 -0.64,3.09 0.43,0.65 1.15,1.02 1.92,1 0.34,0 0.67,-0.1 0.97,-0.25 -0.04,0.32 -0.05,0.64 -0.03,0.96 0.15,3.18 2.88,5.63 6.25,5.63l0.3 0c1.66,-0.08 3.19,-0.75 4.33,-1.89 0.11,-0.11 0.21,-0.23 0.31,-0.35 0.04,0.44 0.07,0.87 0.12,1.31 0.17,1.81 0.37,3.63 0.6,5.41 0.17,1.36 0.36,2.68 0.55,3.94 -0.56,0 -1.13,0 -1.71,0.02 -4.7,0.18 -9.11,0.74 -13.12,1.65 0.21,-3.9 -1.2,-6.03 -2.79,-8.46 -0.11,-0.19 -0.24,-0.38 -0.37,-0.57 -0.08,-0.13 -0.17,-0.26 -0.25,-0.4 -3.16,-4.96 -3.95,-9.11 -2.27,-11.99 1.83,-3.17 7.07,-4.77 14.39,-4.4 1.18,0.04 2.16,-0.84 2.22,-2.02 0.06,-1.18 -0.85,-2.18 -2.03,-2.24 -6.42,-0.31 -14.81,0.57 -18.27,6.52 -1.76,3.04 -2.78,8.37 2.37,16.43 0.18,0.28 0.35,0.54 0.52,0.8l0.12 0.18c1.72,2.62 2.53,3.86 1.97,7.33 -2.39,0.76 -4.56,1.63 -6.61,2.65 -0.01,-0.01 -0.02,-0.02 -0.04,-0.03l-0.05 -0.04c-0.14,-0.1 -0.55,-0.46 -1.19,-1.11 -0.4,-0.41 -0.94,-0.64 -1.51,-0.64 -0.55,0 -1.1,0.21 -1.5,0.6 -0.42,0.4 -0.65,0.93 -0.65,1.5 0,0.57 0.21,1.11 0.61,1.51 0.16,0.17 0.31,0.32 0.45,0.45 -3.21,2.1 -5.98,4.65 -8.25,7.57 -0.54,0.69 -1.03,1.39 -1.49,2.09 -0.3,-0.24 -0.61,-0.5 -0.95,-0.78 -0.69,-0.62 -1.46,-1.35 -2.28,-2.2 -0.4,-0.41 -0.93,-0.64 -1.5,-0.65 -0.57,-0.02 -1.11,0.22 -1.51,0.6 -0.41,0.39 -0.64,0.93 -0.65,1.48 -0.01,0.58 0.2,1.13 0.6,1.55 1.56,1.6 2.94,2.85 4.13,3.72 -1.21,2.41 -2.2,5.07 -2.95,7.9l0.04 0zm39.9 -45.25c0,0 0.01,0 0.02,0 0.01,0 0.02,0 0.02,0 0.01,0 0.02,0 0.04,0 0,0 0,0 0.02,0 0,0 0,0 0.01,0l0 0c0,0 0.01,0 0.02,0 0.01,0 0.02,0 0.03,0l0.04 0c0,0 0.05,0 0.08,0l0 0c0,0 0.02,0 0.03,0 0.01,0 0.03,0 0,0 -0.03,0 0.01,0 0.02,0l0.01 0c0,0 0,0 0.01,0l0.01 0c0,0 0,0 0,0 0,0 0,0 0.01,0 0.01,0 0.01,0 0,0 0.21,0.04 0.46,0.16 0.69,0.32 0.08,0.05 0.16,0.12 0.23,0.18 0.14,0.12 0.28,0.27 0.4,0.43 0.03,0.04 0.06,0.08 0.09,0.13 0.07,0.09 0.12,0.18 0.16,0.28 0.03,0.06 0.06,0.12 0.08,0.19 0.05,0.13 0.09,0.26 0.11,0.4 0.02,0.09 0.03,0.19 0.03,0.29 0,0.24 -0.05,0.48 -0.14,0.69 -0.39,1.02 -1.57,1.73 -2.07,1.51 -0.21,-0.09 -0.32,-0.37 -0.36,-0.79 -0.04,-0.35 -0.05,-0.8 -0.05,-1.33 0,-0.74 -0.01,-1.37 0.09,-1.78 0.01,-0.05 0.02,-0.09 0.04,-0.14 0.05,-0.16 0.12,-0.27 0.23,-0.34 0.02,-0.01 0.04,-0.02 0.06,-0.03l0.04 -0.01zm3.56 -0.39c0,0 0.03,0 0.05,0 0,0.03 0,0.07 0,0.09 -0.02,-0.03 -0.04,-0.07 -0.05,-0.1l0 0.01zm-38.76 81.34c-0.91,-4.44 -1.55,-8.7 -1.92,-12.68 1.01,-1.25 3.11,-2.93 4.82,-4.3 0.15,-0.12 0.3,-0.23 0.44,-0.35 -0.22,1.99 -0.33,3.99 -0.33,6 0,2.01 0.1,3.85 0.3,5.76 0.35,3.32 1.01,6.62 1.97,9.86 -0.97,-0.78 -2.57,-2.09 -5.28,-4.3l0 0.01zm72.86 0.65c-12.97,11.55 -22.14,19.43 -25.49,22.12 -0.21,0.17 -0.62,0.5 -1.22,0.86 -0.6,0.36 -1.4,0.75 -2.35,1.04 -2.57,0.76 -5.31,0.46 -7.71,-0.85 -1.16,-0.63 -2.44,-1.25 -3.8,-1.91 -2.41,-1.16 -5.14,-2.49 -8.36,-4.41 -1.62,-0.97 -3.74,-2.37 -6.31,-4.18 -2.36,-1.68 -4.7,-3.45 -6.95,-5.27 -1.42,-4.12 -2.4,-8.39 -2.91,-12.68 -0.64,-5.41 -0.54,-10.9 0.28,-16.3 1.68,-1.14 3.35,-2.12 5.08,-2.98 2.72,-1.35 5.74,-2.44 9.8,-3.55 9.65,-2.64 28.73,-3.76 36.49,-2.7 1.84,0.25 3.62,-0.82 4.23,-2.54 1.08,-3.02 1.16,-6.27 0.96,-9.09 1.7,2.56 3.47,6.12 3.92,10.86 0.14,1.58 1.2,2.91 2.71,3.41 0.92,0.3 1.84,0.62 2.72,0.96 0.72,3.87 1.07,7.84 1.04,11.8 -0.05,5.18 -0.76,10.37 -2.12,15.43l-0.01 -0.02zm3.64 -30.8l-0.02 0c-1.18,-0.48 -2.44,-0.95 -3.75,-1.38 -0.86,-8.48 -5.3,-13.82 -7.68,-16.69 -0.15,-0.19 -0.29,-0.37 -0.42,-0.52 -0.15,-0.19 -0.3,-0.36 -0.42,-0.53 -0.7,-0.92 -1.89,-1.24 -2.96,-0.81 -1.03,0.42 -1.68,1.47 -1.57,2.55 0.06,0.66 0.16,1.43 0.25,2.09l0 0.05c0.39,2.97 0.97,7.4 -0.21,10.96 -9.15,-1.17 -28.5,0.27 -37.93,2.84 -10.1,2.76 -18.38,7.19 -24.05,12.84 0,-0.36 -0.01,-0.71 -0.02,-1.06 0,-0.59 0,-1.15 0.02,-1.73 0.13,-8.69 1.87,-16.01 5.18,-21.78 0.67,-1.19 1.46,-2.35 2.33,-3.48 6.57,-8.45 17.69,-13.05 33.03,-13.66 0.55,-0.02 1.09,-0.02 1.63,-0.02 5.63,0 10.81,0.8 15.46,2.39 0.02,0 0.05,0.02 0.07,0.03l0.02 0c0,0 0.09,0.04 0.13,0.06 0.05,0.02 0.09,0.03 0.13,0.03 4.34,1.54 8.27,3.81 11.67,6.75 0.7,0.6 1.32,1.17 1.9,1.75 3.04,3.03 5.63,6.65 7.72,10.77l0 0.03 0.11 0.2c1.6,3.18 2.91,6.67 3.9,10.39 -1.37,-0.7 -2.81,-1.37 -4.33,-1.99l-0.19 -0.08 0 0zm-31.72 -51.63l0 0c-0.54,0.28 -0.94,0.76 -1.13,1.34 -0.18,0.58 -0.13,1.2 0.16,1.74 0.58,1.12 1.96,1.56 3.09,0.97 0.21,-0.12 0.43,-0.22 0.65,-0.32 -0.06,0.29 -0.09,0.58 -0.11,0.88 -0.07,1.58 0.48,3.09 1.56,4.28 1.07,1.15 2.53,1.82 4.09,1.91 0.12,0 0.23,0 0.35,0 1.17,0 2.29,-0.33 3.26,-0.96 -0.08,0.53 -0.19,1.05 -0.32,1.58l0 0.05c-0.21,1.31 -0.45,2.62 -0.72,3.9 -0.26,1.24 -0.56,2.47 -0.89,3.67 -3.29,-0.96 -6.85,-1.58 -10.59,-1.84 -0.32,-1.95 -0.74,-4.9 -1.11,-8.58 -0.12,-1.13 -0.23,-2.35 -0.34,-3.74 -0.23,-2.95 -0.38,-5.92 -0.44,-8.83 0,-0.43 -0.02,-0.87 -0.02,-1.3 0,-0.31 0,-0.62 0,-0.93 2.23,-0.24 8.67,-0.51 12.12,3.8 0.28,0.34 0.53,0.71 0.75,1.1 -0.56,-0.14 -1.13,-0.25 -1.71,-0.32 -3.72,-0.46 -6.75,0.61 -8.64,1.6l-0.01 0zm7.83 6.98c-0.06,0.26 -0.16,0.44 -0.32,0.51 -0.57,0.25 -1.98,-0.69 -2.17,-1.92 -0.02,-0.09 -0.03,-0.19 -0.03,-0.29 0,-0.24 0.05,-0.48 0.14,-0.69 0.39,-1.02 1.57,-1.73 2.07,-1.51 0.21,0.09 0.32,0.37 0.36,0.79 0.04,0.35 0.05,0.8 0.05,1.33 0,0.74 0.01,1.37 -0.09,1.78l-0.01 0zm27.76 67.87c-0.72,0.78 -1.45,1.57 -2.09,2.26 0.47,-2.88 0.77,-5.83 0.88,-8.76 0.12,-3.69 -0.07,-7.42 -0.58,-11.1 1.32,0.66 2.55,1.36 3.68,2.08 0.89,5.09 1.09,9.47 1.1,12.33 -0.72,0.75 -1.82,1.94 -2.99,3.19l0 0zm52.14 -73.06l-0.14 0.35c-0.23,0.56 -0.52,1.28 -0.79,1.92 -0.8,1.92 -2,3.53 -3.47,4.66 -1.72,1.31 -4.4,2.54 -7.38,0.92 -1.08,-0.57 -2.35,-0.54 -3.4,0.09 -1.03,0.62 -1.64,1.73 -1.63,2.97l0.02 1.01c0.03,1.59 0.06,3.23 -0.05,5.1 -0.07,1.02 0.34,2.03 1.08,2.68 0.51,0.46 0.9,0.52 1.25,0.52 1.25,0 2.29,-0.97 2.36,-2.2 0.14,-1.88 0.16,-3.52 0.14,-5.12 1.97,0.61 4.04,0.62 6.09,0.05 -4.29,8.24 -9.72,16.8 -16.14,25.46 -6.52,8.81 -14.25,17.94 -22.99,27.17 -0.19,-3.16 -0.57,-6.29 -1.13,-9.33 0,-0.26 -0.05,-0.52 -0.14,-0.75 -0.95,-4.89 -2.35,-9.45 -4.18,-13.58 0.94,-0.28 2.26,-0.75 3.87,-1.47 2.19,-1.01 4.41,-2.25 6.61,-3.69 0.97,-0.66 1.24,-1.99 0.59,-2.96 -0.65,-0.97 -1.97,-1.24 -2.95,-0.6 -4.59,3.03 -8.1,4.31 -10.03,4.85 -2.14,-3.98 -4.76,-7.52 -7.81,-10.55 -0.18,-0.17 -0.36,-0.35 -0.56,-0.55 1.95,-2.03 2.78,-3.17 2.93,-3.39 0.33,-0.46 0.47,-1.02 0.36,-1.58 -0.08,-0.56 -0.4,-1.05 -0.87,-1.37 -0.46,-0.33 -1.03,-0.46 -1.59,-0.36 -0.55,0.09 -1.04,0.4 -1.36,0.85l0 0.02c-0.24,0.3 -1.07,1.36 -2.7,3.05 -2.93,-2.27 -6.18,-4.13 -9.69,-5.53 3.28,-12.06 2.93,-20.38 -1.08,-25.45 -3.95,-4.99 -10.54,-5.51 -15.42,-5.37 0.06,-2.37 0.2,-4.74 0.4,-7.08 10.13,4.28 29.79,4.57 66.62,-16.49 -0.35,3.98 -0.99,11.98 -1.28,20.38 -0.08,1.86 0.69,3.63 2.11,4.86 1.42,1.22 3.29,1.73 5.12,1.38 2.13,-0.39 4.06,-1.55 5.43,-3.29 3.46,-4.42 6.85,-6.89 8.87,-6.46 1.53,0.32 2.91,2.65 3.87,6.53l0.02 0.09c0.97,3.93 0.63,8.17 -0.96,12.25l0 0.01zm4.77 -16.15c-1.51,-4.27 -3.75,-6.75 -6.69,-7.38 -5.09,-1.1 -10.21,3.84 -13.63,8.18 -0.63,0.81 -1.53,1.36 -2.55,1.54 -0.41,0.08 -0.81,-0.03 -1.14,-0.31 -0.31,-0.27 -0.48,-0.66 -0.47,-1.07 0.39,-11.11 1.41,-21.95 1.61,-23.99 0.12,-1.02 -0.35,-2.01 -1.24,-2.58 -0.46,-0.28 -0.97,-0.43 -1.48,-0.43 -0.51,0 -0.96,0.13 -1.42,0.39 -6.63,3.92 -19.76,11.18 -33.17,15.79 -15.69,5.4 -27.44,5.79 -34.92,1.17 -4.77,-2.95 -6.17,-7.17 -6.5,-10.2 -0.58,-5.18 1.53,-10.84 5.53,-14.79 1.21,-1.16 12.3,-11.54 27.3,-18.49 20.69,-9.57 38.59,-8.34 53.23,3.64 7.33,5.99 12.32,13.37 14.85,21.93 2.34,7.92 2.56,16.86 0.67,26.61l0.02 -0.01zm-101.98 15.17l0 0c0,0 0,0 0.01,0l0 0 -0.01 0zm0.21 -0.01l-0.02 0c0,0 0.02,0 0.03,0 0.01,0 0.03,0 0,0l-0.01 0zm0.06 0.01l0 0c0,0 0,0 0.01,0l0 0c0,0 0,0 0,0l-0.01 0zm-0.28 0c0,0 -0.03,0 -0.05,0.02 0.01,0 0.02,0 0.04,0 0,0 0,0 0.02,0l0 0c0,0 -0.01,0 -0.02,0l0.01 -0.02zm0.14 -0.02c0,0 -0.02,0 -0.02,0 0.02,0 0.05,0 0.08,0 -0.02,0 -0.04,0 -0.06,0zm0.08 0.01l-0.02 0c0,0 0.02,0 0.03,0 0.01,0 0.03,0 0,0l-0.01 0z"/>
    <path class="fil0" d="M189.12 123.71c-0.37,0.38 -0.88,0.59 -1.41,0.59 -0.53,0 -1.01,-0.2 -1.38,-0.57 -0.38,-0.37 -0.59,-0.86 -0.59,-1.39 0,-0.53 0.19,-1.02 0.56,-1.4 3.43,-3.49 3.48,-6.47 2.74,-7.22 -0.46,-0.47 -1.55,-0.07 -2.64,0.96 -0.38,0.37 -0.88,0.55 -1.41,0.54 -0.53,-0.01 -1.02,-0.23 -1.38,-0.62 -0.36,-0.39 -0.55,-0.88 -0.54,-1.41 0.01,-0.53 0.23,-1.02 0.62,-1.38 1.69,-1.6 3.37,-2.24 4.84,-2.24 1.34,0 2.5,0.54 3.34,1.38 2.43,2.48 2.27,7.65 -2.74,12.76l-0.01 0z"/>
    <path class="fil0" d="M93.61 188.79c-1,-0.8 -3.15,-2.17 -6.28,-2.3 -0.18,0 -0.35,-0.01 -0.52,-0.01 -4.49,0 -7.3,2.69 -7.84,3.25 -0.34,0.35 -0.51,0.8 -0.48,1.27 0.03,0.47 0.26,0.91 0.66,1.22 0.36,0.29 0.83,0.45 1.31,0.45 0.58,0 1.12,-0.23 1.5,-0.62 0.1,-0.1 0.6,-0.61 1.44,-1.09 -0.07,0.18 -0.11,0.38 -0.14,0.58 -0.03,0.18 -0.05,0.36 -0.06,0.54 0,0.08 0,0.16 0,0.24 0.02,0.44 0.1,0.86 0.25,1.25 0.6,1.59 2.19,2.72 4.04,2.72l0.1 0c1.17,-0.03 2.29,-0.51 3.08,-1.34 0.39,-0.41 0.69,-0.89 0.88,-1.4 0.1,-0.28 0.17,-0.57 0.2,-0.86 0.02,-0.14 0.03,-0.27 0.03,-0.41 0,-0.05 0,-0.1 0,-0.16 0,-0.09 0,-0.18 -0.02,-0.27 0.71,0.19 1.52,0 2.04,-0.55 0.34,-0.35 0.5,-0.8 0.47,-1.27 -0.03,-0.47 -0.27,-0.91 -0.66,-1.22l0 -0.02zm-4.86 3.08c-0.02,0.06 -0.07,0.11 -0.14,0.15 -0.02,0.01 -0.04,0.02 -0.07,0.04 -0.1,0.04 -0.23,0.07 -0.39,0.09 -0.26,0.03 -0.6,0.03 -0.99,0.04 -0.55,0 -1.02,0 -1.33,-0.07 -0.19,-0.05 -0.32,-0.12 -0.38,-0.24 -0.18,-0.42 0.51,-1.48 1.43,-1.62 0.07,-0.01 0.14,-0.02 0.21,-0.02 0.18,0 0.36,0.04 0.52,0.1 0.76,0.3 1.29,1.17 1.13,1.54l0.01 -0.01z"/>
   </g>
   <path class="fil0" d="M110.53 190.01c-0.03,0.46 0.14,0.91 0.47,1.27 0.52,0.55 1.32,0.74 2.04,0.55 -0.01,0.09 -0.02,0.18 -0.02,0.27 0,0.05 0,0.1 0,0.16 0,0.14 0,0.28 0.03,0.41 0.03,0.3 0.1,0.58 0.2,0.86 0.19,0.51 0.48,0.99 0.88,1.4 0.79,0.83 1.91,1.31 3.08,1.34l0.1 0c1.85,0 3.45,-1.12 4.04,-2.72 0.15,-0.39 0.23,-0.82 0.25,-1.25 0,-0.08 0,-0.16 0,-0.24 0,-0.18 -0.02,-0.37 -0.06,-0.54 -0.03,-0.2 -0.08,-0.39 -0.14,-0.58 0.84,0.48 1.34,0.99 1.44,1.09 0.37,0.39 0.92,0.62 1.5,0.62 0.48,0 0.95,-0.16 1.31,-0.45 0.39,-0.32 0.62,-0.75 0.66,-1.22 0.03,-0.46 -0.14,-0.91 -0.48,-1.27 -0.53,-0.55 -3.34,-3.25 -7.84,-3.25 -0.17,0 -0.35,0 -0.52,0.01 -3.13,0.14 -5.28,1.5 -6.28,2.3 -0.39,0.32 -0.63,0.75 -0.66,1.22l0 0.02zm6.64 0.32c0.16,-0.07 0.34,-0.1 0.52,-0.1 0.07,0 0.14,0 0.21,0.02 0.92,0.14 1.62,1.2 1.43,1.62 -0.06,0.12 -0.19,0.2 -0.38,0.24 -0.3,0.07 -0.78,0.07 -1.33,0.07 -0.39,0 -0.73,0 -0.99,-0.04 -0.16,-0.02 -0.28,-0.05 -0.39,-0.09 -0.02,-0.01 -0.05,-0.02 -0.07,-0.04 -0.07,-0.04 -0.11,-0.09 -0.14,-0.15 -0.17,-0.37 0.36,-1.25 1.13,-1.54l0.01 0.01z"/>
   <g>
    <path class="fil0" d="M97.32 120.38c0,0 0.02,0 0.04,0 -0.03,0 -0.06,0 -0.08,0.02 -0.02,0 -0.03,0 -0.04,0 0.02,0 0.03,-0.01 0.05,-0.02 0.01,0 0.02,0 0.04,0l-0.01 0z"/>
    <path class="fil0" d="M97.54 120.38c0,0 0.03,0 0.05,0.01 -0.01,0 -0.02,0 -0.03,0 -0.02,0 -0.05,0 -0.07,0 -0.04,0 -0.08,0 -0.12,0 0.05,0 0.09,0 0.14,0l0.02 0 0.01 -0.01z"/>
   </g>
   <g>
    <path class="fil2" d="M209.08 92.6c-0.41,0.62 -0.87,1.22 -1.36,1.81 -0.16,0.19 -0.32,0.38 -0.49,0.58 -0.18,0.21 -0.42,0.42 -0.78,0.4 -0.39,-0.01 -0.73,-0.27 -1.03,-0.5 -6.1,-4.79 -15.41,-7.51 -23.1,-9.95 -13.47,-4.27 -26.99,-8.33 -40.54,-12.35 -6.88,-2.05 -13.77,-4.08 -20.66,-6.13 -4.71,-1.4 -10.35,-4.44 -15.05,-4.23 0.89,-0.44 1.14,-1.05 1.29,-1.86 0.05,-0.24 0.09,-0.48 0.14,-0.72 0.05,-0.24 0.1,-0.48 0.15,-0.72 1.04,-4.93 2.82,-9.67 5.28,-14.09 0.07,-0.14 0.18,-0.29 0.29,-0.47 0.82,-1.22 2.39,-3.24 0.2,-3.5 -1.82,-0.21 -4.02,0.48 -6.05,0.91 0,0 0,0 0,0 -0.68,0.14 -1.34,0.25 -1.96,0.29 -0.5,0.03 -1,0.06 -1.51,0.08 -2.76,0.14 -5.53,0.18 -8.31,0.09 -1.32,-0.05 -2.68,-0.12 -4.03,-0.23 -4.47,-0.38 -9.03,-1.21 -13.11,-3.08l-0.01 0c-0.53,-0.25 -1.05,-0.51 -1.57,-0.79 -0.02,0 -0.03,-0.02 -0.05,-0.02 0,0 -0.02,-0.02 -0.02,-0.02 -2.81,-1.56 -1.35,-3.68 0.91,-5.57 0.15,-0.13 0.3,-0.24 0.46,-0.36l0 0c0.85,-0.68 1.78,-1.31 2.62,-1.86 0.08,-0.05 0.16,-0.09 0.23,-0.15 0.83,-0.54 1.56,-1 2.01,-1.34 4.06,-3.03 8.28,-5.88 12.66,-8.56 2,-1.22 3.96,-2.48 5.9,-3.75 5.17,-3.38 10.24,-6.86 15.58,-10.04 0.06,-0.04 0.12,-0.07 0.19,-0.11 1.54,-0.91 3.19,-1.74 4.92,-2.48 7.41,-3.14 16.67,-4.63 26.27,-3.4 1.86,0.24 3.73,0.58 5.61,1.03 7.65,1.84 13.77,5.25 19.51,9.72 5.61,4.38 8.68,10.65 13.31,15.63 2.15,2.31 4.48,4.56 7.05,6.66 2.26,1.84 5.13,3.38 7.12,5.37 4.6,4.56 7.29,9.77 9.27,14.88 3.29,8.5 4.25,17.06 3.13,25.14 -1.12,8.08 -0.16,16.64 0,0 -0.11,0.83 -0.25,1.66 -0.42,2.48 -0.2,1 -0.41,1.99 -0.65,2.97 -0.72,2.89 -1.72,5.71 -3.38,8.24l-0.02 0z"/>
    <g>
     <path class="fil3" d="M208.64 93.06c-0.33,0.73 -0.89,1.29 -1.41,1.92 -0.18,0.21 -0.42,0.42 -0.78,0.4 -0.39,-0.01 -0.73,-0.27 -1.03,-0.5 -6.1,-4.79 -15.41,-7.51 -23.1,-9.95 -13.47,-4.27 -26.99,-8.33 -40.54,-12.35 -6.88,-2.05 -13.77,-4.08 -20.66,-6.13 -4.71,-1.4 -10.35,-4.44 -15.05,-4.23 0.89,-0.44 1.14,-1.05 1.29,-1.86 0.05,-0.24 0.09,-0.48 0.14,-0.72 0.05,-0.24 0.1,-0.48 0.15,-0.72 0.53,-2.47 1.28,-4.88 2.2,-7.23 0.98,-2.49 2.42,-4.83 3.37,-7.33 0.82,-1.22 2.39,-3.24 0.2,-3.5 -1.82,-0.21 -4.02,0.48 -6.05,0.91 0,0 0,0 0,0 -1.17,0.07 -2.31,0.25 -3.47,0.37 -0.05,0 -0.11,0.01 -0.16,0.02 -3.52,0.34 -7.12,0.34 -10.73,0 -0.49,-0.05 -0.97,-0.1 -1.46,-0.16 -2.29,-0.27 -4.57,-0.68 -6.82,-1.23 -1.35,-0.32 -2.68,-0.7 -4,-1.13 -0.21,-0.06 -1.31,-0.38 -2.29,-0.71l-0.01 0c-0.85,-0.28 -1.61,-0.57 -1.61,-0.7 0,-0.04 0,-0.07 0,-0.11 -0.05,-1.93 -0.06,-3.94 0.89,-5.59 0.04,-0.06 0.08,-0.13 0.12,-0.19 0.62,-0.98 1.73,-1.75 2.97,-2.04 0.94,-0.22 1.95,-0.17 2.88,0.28 1.43,0.69 2.24,2.04 3.17,3.22 1.79,2.27 4.34,4.13 7.2,5.22 5.26,2 11.21,1.35 15.95,-0.77 4.74,-2.1 8.44,-5.53 11.75,-9.11 3.32,-3.58 6.35,-7.39 10.15,-10.57 3.8,-3.18 8.53,-5.75 13.97,-6.27 -7.31,3.56 -13.35,8.74 -18.19,14.65 -2.99,3.63 -5.53,7.54 -7.78,11.58 -2.12,3.83 -4.82,8.06 -5.65,12.37 -0.29,1.5 -0.1,3.17 0.89,4.54 1.27,1.75 3.05,1.96 5.08,2.21 2.67,0.32 5.35,0.84 8.02,1.24 5.42,0.82 10.85,1.67 16.2,2.99 5.45,1.35 10.85,2.87 16.2,4.58 15.01,4.79 29.57,11.1 42.94,19.13 1.26,0.76 2.52,1.56 3.62,2.49 0.58,0.49 1.11,1.01 1.57,1.59 0.21,0.27 1.05,1.21 1,1.47 -0.15,0.69 -0.79,1.29 -1.09,1.93l-0.04 -0.01z"/>
    </g>
    <g>
     <path class="fil4" d="M162.69 88.18c-31.44,-12.45 -60.87,-4.92 -63.08,-14.35 -0.48,-2.03 0.51,-3.97 1.17,-5.02 0,0 0,0 0,0 0,0 0.45,-1.19 1.49,-2.84 0,0 1.97,-3.14 5.08,-5.6 12.01,-9.48 57.82,6.22 57.82,6.22 0,0 42.89,14.7 44.53,27.24 0.47,3.59 -0.39,6.92 -0.39,6.92 -0.91,3.56 -2.85,6.41 -3.86,7.31 -5.31,4.75 -22.06,-11.67 -42.77,-19.87l0.01 -0.01z"/>
     <path class="fil0" d="M203.04 110.98c-4.14,0 -9.85,-3.53 -17.48,-8.24 -6.97,-4.31 -14.88,-9.19 -23.62,-12.66l0 0c-15.77,-6.25 -31.32,-7.39 -42.67,-8.23 -12.18,-0.9 -20.23,-1.49 -21.65,-7.57 -0.47,-2.01 -0.03,-4.17 1.32,-6.41 0.22,-0.53 0.74,-1.66 1.6,-3.02 0.08,-0.13 2.19,-3.46 5.55,-6.11 5.48,-4.33 17.29,-4.61 35.11,-0.84 12.93,2.73 24.54,6.69 24.65,6.73 0.11,0.04 10.96,3.78 21.87,9.01 15.38,7.38 23.24,13.89 24.03,19.9 0.52,3.93 -0.39,7.54 -0.43,7.7 -1.06,4.12 -3.26,7.24 -4.48,8.33 -1.08,0.97 -2.34,1.4 -3.79,1.4l-0.01 0.01zm-39.59 -24.71c9.08,3.6 17.5,8.8 24.27,12.98 6.79,4.2 14.49,8.95 16.37,7.27 0.73,-0.66 2.43,-3.18 3.24,-6.29 0,-0.03 0.75,-3.02 0.34,-6.14 -1.08,-8.2 -27.04,-20.03 -43.16,-25.56 -12.45,-4.27 -46.75,-13.76 -55.88,-6.55 -2.78,2.19 -4.6,5.05 -4.62,5.08 -0.91,1.43 -1.31,2.47 -1.31,2.48l-0.07 0.18 -0.1 0.17c-0.82,1.33 -1.13,2.53 -0.91,3.47 0.74,3.14 8.33,3.7 17.95,4.41 11.61,0.85 27.52,2.02 43.88,8.5l0 0z"/>
    </g>
    <g>
     <circle class="fil4" transform="matrix(0.166222 -0.0845112 0.0845115 0.166221 81.7161 35.3286)" r="45"/>
     <path class="fil0" d="M81.7 45.78c-1.09,0 -2.19,-0.17 -3.28,-0.53 -2.65,-0.88 -4.8,-2.74 -6.05,-5.24 -1.25,-2.49 -1.46,-5.33 -0.58,-7.97 0.88,-2.65 2.74,-4.8 5.23,-6.05 2.49,-1.25 5.33,-1.46 7.97,-0.58 2.65,0.88 4.8,2.74 6.05,5.23 1.25,2.49 1.46,5.34 0.58,7.98l0 0c-1.45,4.38 -5.54,7.16 -9.92,7.16l0 0zm0.01 -16.79c-0.97,0 -1.94,0.23 -2.84,0.68 -1.51,0.76 -2.64,2.07 -3.17,3.67 -0.53,1.61 -0.41,3.33 0.35,4.85 0.76,1.51 2.06,2.64 3.67,3.17 1.61,0.53 3.32,0.41 4.84,-0.35 1.51,-0.77 2.64,-2.06 3.17,-3.68l0 0c0.53,-1.61 0.41,-3.32 -0.35,-4.84 -0.76,-1.51 -2.06,-2.64 -3.67,-3.17 -0.66,-0.22 -1.33,-0.33 -2,-0.33l0 0z"/>
    </g>
   </g>
  </g>
 </g>
</svg>
