<?xml version="1.0" encoding="UTF-8"?> <svg xmlns="http://www.w3.org/2000/svg" width="956" height="441" viewBox="0 0 956 441" fill="none"><path d="M451.843 300.602C441.851 282.98 436.073 260.9 436.073 235.396C436.073 171.739 472.412 139.767 520.961 139.767C566.891 139.767 609.334 177.262 609.334 247.021C609.334 269.417 605.542 286.941 599.483 300.603H621.664C631.746 282.556 637.242 261.398 637.242 238.882C637.242 171.158 588.404 129.885 522.994 129.885C442.761 129.885 408.457 196.447 408.457 243.535C408.457 262.429 412.782 282.576 422.058 300.603L451.843 300.602Z" fill="#D3B07E"></path><path d="M600.146 44.5259C583.201 81.8229 549.213 89.8924 530.104 89.8924C497.769 89.8924 469.89 73.2283 453.294 44.5259H423.456C439.976 76.0621 471.771 100.938 522.255 100.938C567.751 100.938 603.066 78.2559 622.243 44.5259H600.146Z" fill="#D3B07E"></path><path d="M339.338 257.67C340.669 269.651 343 288.289 357.312 292.95C366.967 295.946 375.622 295.946 378.949 295.946C380.614 295.946 381.611 296.276 381.611 297.61C381.611 299.606 378.615 300.603 374.621 300.603C367.297 300.603 331.347 299.606 319.03 298.607C311.374 297.94 309.711 296.943 309.711 295.278C309.711 293.947 310.377 293.282 312.04 292.95C313.039 292.617 313.705 290.288 313.705 286.625C313.705 285.628 313.372 281.3 313.039 277.307L297.395 109.227H296.397L213.176 285.959C207.851 297.276 206.519 299.604 203.857 299.604C201.858 299.604 199.196 296.276 194.202 285.959L110.649 112.555H109.317L96.6686 258.333C96.0013 267.321 95.6698 276.638 95.6698 283.96C95.6698 288.954 99.332 293.281 104.325 294.278C109.983 295.61 114.977 295.943 116.973 295.943C118.305 295.943 119.635 296.607 119.635 297.607C119.635 299.936 117.638 300.6 113.644 300.6C101.327 300.6 85.3474 299.603 82.6854 299.603C79.689 299.603 63.7111 300.6 54.7248 300.6C51.3955 300.6 49.0664 299.936 49.0664 297.607C49.0664 296.607 50.7296 295.943 52.3943 295.943C55.0563 295.943 57.3868 295.943 62.3808 294.943C72.6989 292.947 74.0306 281.632 75.6953 267.319L99.6635 50.648C99.9965 46.9878 101.328 44.3262 103.326 44.3262C105.323 44.3262 106.654 45.6577 108.318 49.318L210.18 258.669L308.046 49.6523C309.378 46.6563 310.708 44.3276 313.039 44.3276C315.369 44.3276 316.367 46.9892 317.033 53.314L339.338 257.67Z" fill="#D3B07E"></path><path d="M877.618 204.082C877.618 236.034 877.618 262.326 879.283 276.307C880.615 285.959 882.279 293.281 888.938 294.613C891.933 295.277 895.928 295.944 898.923 295.944C900.922 295.944 901.587 296.942 901.587 297.94C901.587 299.939 899.922 300.602 896.26 300.602C886.273 300.602 865.303 299.605 864.968 299.605C863.305 299.605 842.333 300.602 824.025 300.602C820.363 300.602 818.698 299.605 818.698 297.94C818.698 296.943 819.364 295.944 821.361 295.944C824.356 295.944 831.679 295.277 836.34 294.613C846.327 293.281 848.325 285.959 849.322 276.307C850.987 262.326 850.987 236.034 850.987 204.082V196.096C850.987 194.431 850.321 193.434 848.656 193.434L807.713 194.099C805.715 194.099 804.716 194.766 803.384 196.097C796.726 204.751 781.081 227.05 767.1 245.355C748.126 270.318 736.475 286.627 722.162 294.283C713.508 298.943 705.185 300.605 686.544 300.605H662.91C656.917 300.605 654.921 299.94 654.921 297.943C654.921 296.946 656.253 295.947 657.917 295.947C659.915 295.947 664.575 295.947 670.9 294.947C679.222 293.616 693.535 289.955 711.511 270.984C730.818 250.35 753.455 220.728 780.751 185.781C750.791 158.156 740.473 133.527 740.473 108.897C740.473 85.9323 755.119 69.624 763.441 63.6322C781.084 50.9856 803.387 48.9883 824.358 48.9883C834.677 48.9883 859.976 49.9869 863.638 49.9869C865.303 49.9869 886.273 48.9883 901.254 48.9883C904.916 48.9883 906.581 49.654 906.581 51.6499C906.581 52.9829 905.249 53.6472 903.917 53.6472C900.922 53.6472 895.264 53.9801 892.599 54.6458C881.615 56.976 878.951 62.3007 878.284 73.6172C877.618 84.2694 877.618 93.5872 877.618 145.508V204.082ZM850.988 65.6266C850.988 63.6279 849.989 62.2978 848.326 61.632C844.997 60.6334 836.009 59.6347 826.022 59.6347C790.404 59.6347 768.434 84.5965 768.434 126.201C768.434 151.496 777.089 169.47 788.74 177.457C796.396 182.782 805.716 183.781 813.704 183.781C828.352 183.781 843.663 181.451 848.656 178.455C850.321 177.457 850.987 176.126 850.987 174.461L850.988 65.6266Z" fill="#D3B07E"></path><path d="M62.9805 382.772C60.4807 381.39 58.5204 379.452 57.0954 376.951C55.6732 374.451 54.9629 371.635 54.9629 368.504C54.9629 365.376 55.6732 362.571 57.0954 360.091C58.519 357.613 60.4792 355.684 62.9805 354.299C65.4804 352.917 68.3175 352.229 71.4875 352.229C74.2529 352.229 76.7212 352.767 78.8967 353.843C81.0708 354.922 82.7886 356.497 84.05 358.568L80.8183 360.761C79.7606 359.177 78.4189 357.989 76.7929 357.197C75.1656 356.404 73.3976 356.009 71.4875 356.009C69.1714 356.009 67.0877 356.524 65.2379 357.562C63.3881 358.599 61.9459 360.073 60.9083 361.984C59.8708 363.892 59.3527 366.067 59.3527 368.505C59.3527 370.986 59.8708 373.171 60.9083 375.06C61.9459 376.951 63.3881 378.414 65.2379 379.452C67.0877 380.486 69.1714 381.004 71.4875 381.004C73.3976 381.004 75.1656 380.62 76.7929 379.846C78.4189 379.076 79.7592 377.896 80.8183 376.309L84.05 378.503C82.7886 380.576 81.0622 382.152 78.8666 383.228C76.6724 384.307 74.2113 384.845 71.4875 384.845C68.3175 384.845 65.4804 384.156 62.9805 382.772Z" fill="#D3B07E"></path><path d="M141.185 356.312H129.05V384.541H124.721V356.312H112.586V352.473H141.185V356.312Z" fill="#D3B07E"></path><path d="M201.676 352.473L185.639 388.382C184.337 391.39 182.833 393.522 181.126 394.783C179.418 396.044 177.366 396.674 174.966 396.674C173.422 396.674 171.979 396.43 170.637 395.942C169.295 395.454 168.137 394.72 167.161 393.746L169.173 390.514C170.799 392.14 172.749 392.955 175.027 392.955C176.49 392.955 177.74 392.546 178.776 391.732C179.813 390.92 180.778 389.539 181.674 387.587L183.076 384.477L168.747 352.47H173.26L185.333 379.723L197.408 352.47H201.676V352.473Z" fill="#D3B07E"></path><path d="M265.154 380.76V392.283H261.068V384.541H232.347V392.283H228.262V380.76H230.09C232.244 380.64 233.708 379.054 234.481 376.005C235.252 372.959 235.781 368.691 236.066 363.204L236.493 352.473H260.151V380.76H265.154ZM238.874 374.695C238.304 377.641 237.288 379.664 235.824 380.76H255.826V356.312H240.398L240.032 363.448C239.828 367.998 239.442 371.747 238.874 374.695Z" fill="#D3B07E"></path><path d="M300.398 352.473H304.728V377.958L326.132 352.473H329.973V384.541H325.644V359.056L304.3 384.541H300.398V352.473Z" fill="#D3B07E"></path><path d="M393.815 352.473V384.541H389.851V373.933H379.79H378.569L371.13 384.541H366.436L374.423 373.324C371.942 372.635 370.032 371.454 368.691 369.787C367.348 368.122 366.68 366.006 366.68 363.448C366.68 359.872 367.899 357.147 370.337 355.276C372.777 353.407 376.109 352.474 380.338 352.474L393.815 352.473ZM380.158 370.702H389.853V356.312H380.462C374.202 356.312 371.072 358.731 371.072 363.568C371.072 368.323 374.099 370.702 380.158 370.702Z" fill="#D3B07E"></path><path d="M487.415 370.273H480.099V384.54H475.77V352.471H480.099V366.553H487.477L498.758 352.471H503.452L490.829 368.016L504.367 384.54H499.246L487.415 370.273Z" fill="#D3B07E"></path><path d="M562.724 354.269C565.162 355.633 567.073 357.553 568.455 360.031C569.837 362.512 570.527 365.336 570.527 368.505C570.527 371.716 569.837 374.565 568.455 377.041C567.073 379.522 565.172 381.44 562.754 382.803C560.333 384.165 557.601 384.847 554.551 384.847C551.951 384.847 549.602 384.309 547.509 383.23C545.414 382.153 543.698 380.578 542.356 378.505V396.37H538.026V352.472H542.172V358.812C543.474 356.698 545.192 355.074 547.326 353.936C549.459 352.798 551.869 352.23 554.551 352.23C557.56 352.229 560.284 352.909 562.724 354.269ZM560.346 379.452C562.174 378.414 563.608 376.941 564.645 375.029C565.681 373.121 566.199 370.946 566.199 368.505C566.199 366.068 565.681 363.904 564.645 362.013C563.608 360.124 562.174 358.649 560.346 357.593C558.518 356.537 556.484 356.009 554.248 356.009C551.971 356.009 549.927 356.536 548.119 357.593C546.31 358.649 544.887 360.124 543.85 362.013C542.812 363.904 542.296 366.068 542.296 368.505C542.296 370.946 542.812 373.121 543.85 375.029C544.887 376.941 546.31 378.414 548.119 379.452C549.927 380.486 551.971 381.004 554.248 381.004C556.483 381.004 558.516 380.485 560.346 379.452Z" fill="#D3B07E"></path><path d="M627.176 355.367C629.412 357.46 630.53 360.559 630.53 364.664V384.54H626.384V379.541C625.407 381.208 623.974 382.508 622.084 383.445C620.194 384.377 617.947 384.847 615.347 384.847C611.769 384.847 608.922 383.991 606.81 382.285C604.697 380.579 603.64 378.322 603.64 375.517C603.64 372.797 604.626 370.602 606.597 368.934C608.569 367.267 611.709 366.435 616.018 366.435H626.202V364.485C626.202 361.719 625.43 359.617 623.885 358.175C622.34 356.731 620.084 356.011 617.116 356.011C615.083 356.011 613.133 356.344 611.263 357.014C609.391 357.687 607.786 358.611 606.445 359.789L604.495 356.557C606.121 355.176 608.071 354.111 610.349 353.358C612.625 352.607 615.022 352.231 617.544 352.231C621.728 352.229 624.939 353.273 627.176 355.367ZM622.298 379.753C624.046 378.638 625.348 377.021 626.202 374.908V369.665H616.14C610.651 369.665 607.907 371.576 607.907 375.395C607.907 377.265 608.619 378.739 610.041 379.815C611.464 380.894 613.457 381.432 616.018 381.432C618.457 381.432 620.55 380.872 622.298 379.753Z" fill="#D3B07E"></path><path d="M673.794 382.772C671.294 381.39 669.334 379.452 667.909 376.951C666.487 374.451 665.776 371.635 665.776 368.504C665.776 365.376 666.487 362.571 667.909 360.091C669.332 357.613 671.293 355.684 673.794 354.299C676.294 352.917 679.131 352.229 682.301 352.229C685.066 352.229 687.535 352.767 689.71 353.843C691.884 354.922 693.602 356.497 694.863 358.568L691.632 360.761C690.574 359.177 689.232 357.989 687.606 357.197C685.979 356.404 684.211 356.009 682.301 356.009C679.985 356.009 677.901 356.524 676.051 357.562C674.202 358.599 672.759 360.073 671.722 361.984C670.684 363.892 670.166 366.067 670.166 368.505C670.166 370.986 670.684 373.171 671.722 375.06C672.759 376.951 674.202 378.414 676.051 379.452C677.901 380.486 679.985 381.004 682.301 381.004C684.211 381.004 685.979 380.62 687.606 379.846C689.232 379.076 690.573 377.896 691.632 376.309L694.863 378.503C693.602 380.576 691.876 382.152 689.68 383.228C687.486 384.307 685.025 384.845 682.301 384.845C679.131 384.845 676.295 384.156 673.794 382.772Z" fill="#D3B07E"></path><path d="M734.376 382.742C731.895 381.34 729.945 379.401 728.521 376.921C727.099 374.44 726.389 371.635 726.389 368.505C726.389 365.377 727.099 362.572 728.521 360.093C729.945 357.615 731.896 355.685 734.376 354.3C736.856 352.919 739.64 352.23 742.73 352.23C745.818 352.23 748.603 352.919 751.083 354.3C753.563 355.685 755.503 357.616 756.907 360.093C758.31 362.574 759.01 365.379 759.01 368.505C759.01 371.636 758.31 374.441 756.907 376.921C755.503 379.4 753.563 381.34 751.083 382.742C748.602 384.146 745.818 384.847 742.73 384.847C739.64 384.845 736.856 384.145 734.376 382.742ZM748.859 379.452C750.667 378.414 752.079 376.941 753.096 375.029C754.111 373.121 754.621 370.946 754.621 368.505C754.621 366.068 754.111 363.892 753.096 361.984C752.079 360.073 750.667 358.599 748.859 357.562C747.049 356.524 745.006 356.009 742.73 356.009C740.452 356.009 738.409 356.524 736.601 357.562C734.791 358.599 733.369 360.073 732.331 361.984C731.294 363.892 730.776 366.068 730.776 368.505C730.776 370.946 731.294 373.121 732.331 375.029C733.369 376.941 734.791 378.414 736.601 379.452C738.409 380.486 740.452 381.004 742.73 381.004C745.006 381.004 747.049 380.485 748.859 379.452Z" fill="#D3B07E"></path><path d="M816.455 356.312H804.32V384.541H799.99V356.312H787.855V352.473H816.455V356.312Z" fill="#D3B07E"></path><path d="M872.246 366.495C874.36 368.241 875.418 370.761 875.418 374.054C875.418 377.47 874.278 380.09 872.002 381.92C869.725 383.746 866.473 384.64 862.245 384.601L849.562 384.54V352.471H853.892V363.689L863.039 363.809C867.064 363.852 870.133 364.746 872.246 366.495ZM868.74 379.511C870.265 378.272 871.028 376.453 871.028 374.054C871.028 371.697 870.276 369.949 868.772 368.811C867.267 367.673 865.011 367.085 862.003 367.043L853.894 366.923V381.189L862.003 381.31C864.969 381.352 867.216 380.752 868.74 379.511ZM880.785 352.473H885.115V384.541H880.785V352.473Z" fill="#D3B07E"></path></svg> 