<svg width="224" height="56" viewBox="0 0 224 56" fill="none" xmlns="http://www.w3.org/2000/svg">
<path d="M27.0637 41.3832C26.0095 32.0563 32.1647 22.0999 39.784 16.3931C35.3506 11.5198 30.1852 7.57918 25.3419 5.76044C14.0739 1.53421 2.84116 5.79542 2.80016 18.4333C2.75917 32.2487 13.9275 45.1839 25.6874 51.223C30.2206 53.5846 35.4352 54.3117 40.4458 53.2808C33.6054 53.8637 27.9597 49.3518 27.0578 41.3832" fill="#FFA742"/>
<path d="M43.4968 14.0084C42.2003 14.7085 40.9591 15.5055 39.7838 16.3926C45.6579 22.8339 50.2377 30.9541 51.0634 37.9318C52.0942 46.734 47.0693 51.7763 40.4515 53.2803C42.427 53.0983 44.3534 52.5632 46.1381 51.7005C55.8424 47.1187 62.671 35.3785 62.5363 24.95C62.3841 13.7169 52.3636 9.28085 43.5144 14.0142" fill="#79CE4B"/>
<path d="M51.0638 37.9323C50.238 30.9546 45.6582 22.8344 39.7841 16.3931C32.1707 22.0999 26.0096 32.0272 27.0638 41.3832C27.9833 49.346 33.6114 53.852 40.4518 53.2808C47.0696 51.7768 52.0945 46.7345 51.0638 37.9323Z" fill="#318230"/>
<path d="M86.0526 33.2896C85.1909 34.0626 84.1945 34.4548 83.0906 34.4548C81.7718 34.4548 80.6758 34.0216 79.8288 33.1645C78.9802 32.3297 78.5499 31.1901 78.5499 29.7757C78.5499 28.4111 78.9619 27.3185 79.8084 26.4362C80.6732 25.5353 81.6628 25.0972 82.8333 25.0972C84.0624 25.0972 85.0226 25.3534 85.7811 25.8888C86.2151 26.1597 86.6789 26.1029 87.0443 25.7178C87.1847 25.5353 87.256 25.3425 87.256 25.1453C87.256 24.8563 87.1465 24.6148 86.9106 24.4116C85.8026 23.6233 84.402 23.2398 82.6283 23.2398C80.9185 23.2398 79.4719 23.8713 78.3298 25.1174C77.1908 26.3591 76.6132 27.927 76.6132 29.7757C76.6132 31.7632 77.2028 33.3163 78.4126 34.5215C79.5788 35.7102 81.1182 36.3123 82.9874 36.3123C84.7275 36.3123 86.1401 35.7359 87.3079 34.5461C87.4736 34.3734 87.5642 34.1281 87.5574 33.8736C87.5506 33.6348 87.4552 33.4136 87.3079 33.277C86.9725 32.9268 86.3928 32.9328 86.0526 33.2896Z" fill="#79CE4B"/>
<path d="M94.0375 29.4755L98.4741 24.8152C98.6556 24.6181 98.7521 24.3784 98.7521 24.1235C98.7521 23.6441 98.3906 23.2398 97.9631 23.2398C97.6665 23.2398 97.3834 23.3966 97.0735 23.7337L92.5002 28.6998H91.5761V24.2053C91.5761 23.6637 91.1852 23.2398 90.686 23.2398C90.1414 23.2398 89.7463 23.6458 89.7463 24.2053V35.3461C89.7463 35.6374 89.8515 35.8939 90.0429 36.0697C90.5318 36.5184 91.5761 36.2994 91.5761 35.3461V30.6052H92.6766L97.4608 35.8004C97.8068 36.1448 98.1116 36.3123 98.3926 36.3123C98.8552 36.3123 99.2317 35.9163 99.2317 35.429C99.2317 35.1171 99.1167 34.8522 98.9016 34.6528L94.0375 29.4755Z" fill="#79CE4B"/>
<path d="M109.751 25.8691V32.782C109.05 33.625 107.656 34.4543 106.268 34.4543C103.589 34.4543 101.925 32.6821 101.925 29.8293C101.925 28.4755 102.367 27.3753 103.277 26.4657C104.184 25.5577 105.33 25.0972 106.684 25.0972C107.802 25.0972 108.807 25.3496 109.751 25.8691ZM111.117 24.3493L111.109 24.3438C109.796 23.6009 108.358 23.2398 106.71 23.2398C104.774 23.2398 103.153 23.868 101.893 25.1081C100.611 26.3695 99.962 27.9402 99.962 29.7757C99.962 31.7135 100.53 33.3076 101.649 34.5149C102.756 35.7075 104.24 36.3123 106.06 36.3123C107.348 36.3123 108.735 35.7649 109.751 34.8831V35.236C109.751 35.5201 109.859 35.7703 110.057 35.9419C110.561 36.3795 111.636 36.1653 111.636 35.236V25.2791C111.636 24.8858 111.452 24.5558 111.117 24.3493Z" fill="#79CE4B"/>
<path d="M124.573 23.2398C124.006 23.2398 123.595 23.6458 123.595 24.2059V28.7004H116.457V24.2059C116.457 23.6637 116.051 23.2398 115.532 23.2398C114.965 23.2398 114.554 23.6458 114.554 24.2059V35.3467C114.554 35.8883 114.961 36.3123 115.48 36.3123C116.055 36.3123 116.457 35.9152 116.457 35.3467V30.6052H123.595V35.3467C123.595 35.6374 123.705 35.8939 123.904 36.0703C124.412 36.5184 125.499 36.2994 125.499 35.3467V24.2059C125.499 23.6637 125.092 23.2398 124.573 23.2398Z" fill="#79CE4B"/>
<path d="M136.879 25.1417V34.2268H130.7C130.992 33.6916 131.28 32.9395 131.559 31.9793C131.91 30.7087 132.155 29.2251 132.29 27.5648L132.435 25.1417H136.879ZM139.853 34.2268H138.816V24.2318C138.816 23.6939 138.372 23.2398 137.848 23.2398H131.563C131.005 23.2398 130.569 23.6754 130.569 24.2151L130.409 26.9821C130.199 30.508 129.359 33.1246 128.592 34.2268H127.927C127.402 34.2268 126.958 34.6809 126.958 35.2189V38.3421C126.958 39.4919 128.815 39.4919 128.815 38.3421V36.1287H138.965V38.3421C138.965 38.917 139.432 39.2173 139.893 39.2173C140.354 39.2173 140.821 38.917 140.821 38.3421V35.2189C140.821 34.6809 140.378 34.2268 139.853 34.2268Z" fill="#79CE4B"/>
<path d="M152.24 23.2398C151.826 23.2398 151.416 23.4946 151.055 23.9746L144.148 33.0728V24.2059C144.148 23.6637 143.749 23.2398 143.24 23.2398C142.684 23.2398 142.281 23.6458 142.281 24.2059V35.2364C142.281 35.9107 142.658 36.3123 143.292 36.3123C143.598 36.3123 144.049 36.1885 144.45 35.6055L151.358 26.5072V35.3467C151.358 35.8883 151.756 36.3123 152.266 36.3123C152.83 36.3123 153.225 35.9152 153.225 35.3467V24.2608C153.225 23.6122 152.866 23.2398 152.24 23.2398Z" fill="#79CE4B"/>
<path d="M166.225 23.2398C165.696 23.2398 165.313 23.6458 165.313 24.2059V28.7004H158.65V24.2059C158.65 23.6637 158.271 23.2398 157.787 23.2398C157.258 23.2398 156.874 23.6458 156.874 24.2059V35.3467C156.874 35.8883 157.253 36.3123 157.738 36.3123C158.275 36.3123 158.65 35.9152 158.65 35.3467V30.6052H165.313V35.3467C165.313 35.6374 165.415 35.8939 165.6 36.0703C166.075 36.5184 167.088 36.2994 167.089 35.3467V24.2059C167.089 23.6637 166.709 23.2398 166.225 23.2398Z" fill="#79CE4B"/>
<path d="M179.796 25.8691V32.782C179.095 33.625 177.701 34.4543 176.313 34.4543C173.634 34.4543 171.97 32.6821 171.97 29.8293C171.97 28.4755 172.413 27.3753 173.322 26.4657C174.229 25.5577 175.376 25.0972 176.73 25.0972C177.846 25.0972 178.851 25.3496 179.796 25.8691ZM181.161 24.3493L181.153 24.3438C179.841 23.6009 178.403 23.2398 176.755 23.2398C174.819 23.2398 173.198 23.868 171.938 25.1081C170.657 26.3695 170.007 27.9396 170.007 29.7757C170.007 31.7129 170.575 33.307 171.695 34.5149C172.8 35.7075 174.284 36.3123 176.105 36.3123C177.393 36.3123 178.78 35.7649 179.796 34.8831V35.236C179.796 35.5201 179.905 35.7703 180.102 35.9419C180.605 36.3795 181.681 36.1653 181.681 35.236V25.2791C181.681 24.8863 181.496 24.5558 181.161 24.3493Z" fill="#79CE4B"/>
<path d="M192.145 32.4104C192.145 33.7361 191.02 34.4076 188.803 34.4076C188.17 34.4076 187.462 34.388 186.649 34.3655L186.464 34.3599V30.55H188.983C192.145 30.55 192.145 31.9506 192.145 32.4104ZM189.266 28.8099H186.464V25.1909C187.186 25.1674 187.981 25.1445 188.751 25.1445C191.707 25.1445 191.707 26.483 191.707 26.9226C191.707 28.0869 190.771 28.8099 189.266 28.8099ZM192.016 29.5257C193.021 29.0054 193.648 27.9626 193.648 26.7031C193.648 24.3727 191.996 23.2398 188.596 23.2398C188.252 23.2398 187.219 23.2678 185.533 23.3221C185.001 23.3221 184.6 23.7494 184.6 24.3156V35.2364C184.6 35.8032 185.001 36.2299 185.525 36.2299C187.372 36.2865 188.365 36.3123 188.648 36.3123C192.257 36.3123 194.086 35.0454 194.086 32.5471C194.086 31.0417 193.391 30.0286 192.016 29.5257Z" fill="#79CE4B"/>
<path d="M206.963 23.2398C206.549 23.2398 206.139 23.4946 205.778 23.9746L198.871 33.0728V24.2059C198.871 23.6637 198.472 23.2398 197.963 23.2398C197.407 23.2398 197.004 23.6458 197.004 24.2059V35.2364C197.004 35.9107 197.382 36.3123 198.015 36.3123C198.321 36.3123 198.772 36.1885 199.174 35.6055L206.081 26.5072V35.3467C206.081 35.8883 206.479 36.3123 206.989 36.3123C207.554 36.3123 207.948 35.9152 207.948 35.3467V24.2608C207.948 23.6122 207.589 23.2398 206.963 23.2398Z" fill="#79CE4B"/>
<path d="M217.684 25.1526V29.6599H214.772C214.204 29.6599 213.683 29.4551 213.178 29.0339C212.681 28.6199 212.449 28.1199 212.449 27.4613C212.449 25.9726 213.54 25.1526 215.522 25.1526H217.684ZM218.653 23.2398H215.762C212.374 23.2398 210.431 24.7684 210.431 27.4343C210.431 29.3933 211.717 30.7161 213.111 31.1368L210.325 34.7605C210.204 34.9259 210.137 35.1531 210.137 35.3972C210.137 35.9191 210.529 36.3123 211.052 36.3123C211.405 36.3123 211.721 36.1137 212.018 35.7065L215.094 31.5732H217.684V35.3426C217.684 35.8865 218.098 36.3123 218.627 36.3123C219.212 36.3123 219.622 35.9135 219.622 35.3426V24.2375C219.622 23.6964 219.178 23.2398 218.653 23.2398Z" fill="#79CE4B"/>
</svg>
